Coordinates
version=1
nRows=7
nColumns=63
inDegrees=yes

Units are S.I. units (second, meters, Newtons, ...)
If the header above contains a line with 'inDegrees', this indicates whether rotational values are in degrees (yes) or radians (no).

endheader
time	pelvis_tilt	pelvis_list	pelvis_rotation	pelvis_tx	pelvis_ty	pelvis_tz	hip_flexion_r	hip_adduction_r	hip_rotation_r	knee_angle_r	knee_angle_r_beta	ankle_angle_r	subtalar_angle_r	mtp_angle_r	hip_flexion_l	hip_adduction_l	hip_rotation_l	knee_angle_l	knee_angle_l_beta	ankle_angle_l	subtalar_angle_l	mtp_angle_l	L5_S1_Flex_Ext	L5_S1_Lat_Bending	L5_S1_axial_rotation	L4_L5_Flex_Ext	L4_L5_Lat_Bending	L4_L5_axial_rotation	L3_L4_Flex_Ext	L3_L4_Lat_Bending	L3_L4_axial_rotation	L2_L3_Flex_Ext	L2_L3_Lat_Bending	L2_L3_axial_rotation	L1_L2_Flex_Ext	L1_L2_Lat_Bending	L1_L2_axial_rotation	L1_T12_Flex_Ext	L1_T12_Lat_Bending	L1_T12_axial_rotation	Abs_r3	Abs_r2	Abs_r1	Abs_t1	Abs_t2	neck_flexion	neck_bending	neck_rotation	arm_flex_r	arm_add_r	arm_rot_r	elbow_flex_r	pro_sup_r	wrist_flex_r	wrist_dev_r	arm_flex_l	arm_add_l	arm_rot_l	elbow_flex_l	pro_sup_l	wrist_flex_l	wrist_dev_l
      4.66666667	      9.45223749	     -5.95900729	     82.86132477	      0.27244623	      0.93659939	      0.60625280	      2.77277283	      6.44097330	      4.35661513	     12.06467843	      0.21056836	     40.21394853	     11.29972620	      0.00000000	      1.30686552	     -8.09963644	    -11.92681780	     12.72880620	      0.22215958	     39.90129759	      5.61257908	      0.00000000	      0.12115065	      0.70819221	     -0.54835137	      0.22498887	      0.94189564	     -0.58262333	      0.19903840	      1.72189854	     -0.58262333	      0.13846308	      1.72189854	     -0.47980745	      0.11250049	      1.44414555	     -0.44553549	      0.06922548	      1.09698973	     -0.41126353	      0.86536698	      8.01121190	     -3.04976583	      0.00000000	      0.00000000	     27.53785891	     -3.81655120	     -5.75141042	      9.24958635	    -14.10913477	    107.11465655	     14.09069938	     14.87268227	     -6.68801038	     -9.89415150	     -5.69061841	    -12.60773008	     19.72027179	     24.65278842	     86.79511254	     -8.58128966	     -3.56121744
      4.68333333	      9.35693286	     -5.97298688	     82.86868267	      0.27252434	      0.93656874	      0.60585709	      2.73865198	      6.36193934	      4.34943050	     11.98536441	      0.20918407	     40.30865746	     11.29741438	      0.00000000	      1.36761456	     -8.01617848	    -11.83692832	     12.66724184	      0.22108508	     40.16951583	      5.67879884	      0.00000000	      0.12583206	      0.70153615	     -0.48965362	      0.23368271	      0.93304308	     -0.52025698	      0.20672949	      1.70571499	     -0.52025698	      0.14381346	      1.70571499	     -0.42844692	      0.11684765	      1.43057251	     -0.39784357	      0.07190044	      1.08667949	     -0.36724022	      0.89880580	      7.93591721	     -2.72330656	      0.00000000	      0.00000000	     27.60679603	     -3.87967749	     -5.51840245	      9.05781670	    -14.11286244	    107.11441262	     13.98432073	     14.76774816	     -6.68038650	     -9.80932528	     -5.37844571	    -12.64426874	     19.47402954	     24.29852574	     86.63133232	     -8.78154125	     -3.48892836
      4.70000000	      9.18584428	     -5.94182340	     82.30216784	      0.27311867	      0.93681230	      0.60565956	      2.71769327	      6.18390518	      4.63511704	     12.01057940	      0.20962416	     40.42022209	     11.70895317	      0.00000000	      1.25487395	     -7.84022400	    -12.38997599	     12.53175472	      0.21872038	     40.31256972	      5.63970995	      0.00000000	      0.12123180	      0.69478065	     -0.36909503	      0.22513957	      0.92405826	     -0.39216347	      0.19917172	      1.68928967	     -0.39216347	      0.13855582	      1.68928967	     -0.32295815	      0.11257585	      1.41679670	     -0.29988971	      0.06927185	      1.07621522	     -0.27682127	      0.86594662	      7.85949763	     -2.05279585	      0.00000000	      0.00000000	     27.64188143	     -3.64465790	     -4.32219916	      8.94250875	    -14.02236337	    107.15749192	     13.71706887	     14.21303465	     -6.33316470	     -9.84832562	     -5.14553970	    -12.47875119	     18.84335543	     23.71775674	     86.11567168	     -9.32881123	     -3.69514856
      4.71666667	      9.05815290	     -5.86371494	     82.24588709	      0.27308352	      0.93693393	      0.60546416	      2.62331112	      6.04421288	      4.66396557	     11.95809472	      0.20870813	     40.54030629	     11.78687941	      0.00000000	      1.30301756	     -7.72545136	    -12.39764303	     12.62835842	      0.22040643	     40.56904085	      5.72147237	      0.00000000	      0.11762921	      0.68507112	     -0.32406175	      0.21844921	      0.91114459	     -0.34431561	      0.19325304	      1.66568192	     -0.34431561	      0.13443843	      1.66568192	     -0.28355403	      0.10923049	      1.39699702	     -0.26330017	      0.06721333	      1.06117516	     -0.24304631	      0.84021371	      7.74966150	     -1.80233425	      0.00000000	      0.00000000	     27.65455495	     -3.70826225	     -3.98260481	      8.89010165	    -13.98384942	    107.29091630	     13.68285600	     14.22530188	     -6.28160505	     -9.94548636	     -4.92215843	    -12.50873732	     18.47194834	     23.30514200	     85.80653705	     -9.42748545	     -3.51243803
      4.73333333	      8.93290515	     -5.70353079	     82.04579869	      0.27318409	      0.93715852	      0.60549231	      2.47127634	      5.89056639	      4.75267261	     11.94175711	      0.20842298	     40.66474704	     12.00527342	      0.00000000	      1.26146665	     -7.60869452	    -12.62274520	     12.81817437	      0.22371935	     40.74436193	      5.74149783	      0.00000000	      0.09951117	      0.67556786	     -0.29604041	      0.18480220	      0.89850526	     -0.31454294	      0.16348690	      1.64257570	     -0.31454294	      0.11373132	      1.64257570	     -0.25903536	      0.09240607	      1.37761799	     -0.24053284	      0.05686068	      1.04645462	     -0.22203031	      0.71079835	      7.64215879	     -1.64648797	      0.00000000	      0.00000000	     27.61547051	     -3.74502707	     -3.48740655	      8.93493972	    -13.88682678	    107.54834965	     13.58328847	     14.32420997	     -6.20436571	    -10.28688729	     -4.85612061	    -12.48995541	     17.69502135	     22.83329270	     85.08534955	     -9.41720670	     -3.16824170
      4.75000000	      8.95302654	     -5.63231777	     82.02305076	      0.27345450	      0.93719860	      0.60544091	      2.40213927	      5.92641574	      4.74924008	     11.95537077	      0.20866058	     40.73995885	     12.07224865	      0.00000000	      1.21270370	     -7.65587038	    -12.66670454	     12.87064464	      0.22463513	     40.73077717	      5.76545313	      0.00000000	      0.09880422	      0.67511985	     -0.27818457	      0.18348933	      0.89790940	     -0.29557111	      0.16232546	      1.64148640	     -0.29557111	      0.11292335	      1.64148640	     -0.24341150	      0.09174960	      1.37670439	     -0.22602496	      0.05645673	      1.04576064	     -0.20863843	      0.70574869	      7.63709075	     -1.54717913	      0.00000000	      0.00000000	     27.59279198	     -3.76766357	     -3.41128195	      8.93289673	    -13.81536841	    107.67929531	     13.61772710	     14.39635496	     -6.17567019	    -10.44026042	     -4.98730325	    -12.72919993	     17.32010751	     22.67507947	     84.77635978	     -9.39485921	     -3.04905431
      4.76666667	      8.88166347	     -5.58938918	     81.78453897	      0.27360248	      0.93711691	      0.60542098	      2.42608624	      5.77284012	      4.16244046	     12.07753970	      0.21079283	     40.99332876	     13.16756895	      0.00000000	      1.14611150	     -7.65182742	    -13.54196995	     13.04374268	      0.22765626	     40.76301107	      6.58951330	      0.00000000	      0.09239633	      0.66716895	     -0.31884819	      0.17158923	      0.88733470	     -0.33877620	      0.15179794	      1.62215458	     -0.33877620	      0.10559977	      1.62215458	     -0.27899217	      0.08579924	      1.36049092	     -0.25906415	      0.05279526	      1.03344470	     -0.23913614	      0.65997777	      7.54714857	     -1.77333798	      0.00000000	      0.00000000	     27.59368691	     -3.62072577	     -3.38038928	      9.58584207	    -13.14488550	    115.72442038	     12.56299389	      9.01522620	     -5.45845338	    -11.75655293	     -6.22138644	    -12.07972794	     10.36208338	     23.74122565	     84.87666180	     -8.32910287	     -1.74567982
